<svg width="21" height="24" viewBox="0 0 21 24" fill="none" xmlns="http://www.w3.org/2000/svg">
<path d="M15.0625 9.20312V20.9219C15.061 21.4394 14.8547 21.9353 14.4887 22.3012C14.1228 22.6672 13.6269 22.8735 13.1094 22.875H4.51562C3.9981 22.8735 3.50221 22.6672 3.13626 22.3012C2.77032 21.9353 2.56405 21.4394 2.5625 20.9219V10.375" stroke="white" stroke-width="1.8" stroke-linecap="round" stroke-linejoin="round"/>
<path d="M15.0625 10.375H17.0156C17.7402 10.3771 18.4345 10.6658 18.9468 11.1782C19.4592 11.6905 19.7479 12.3848 19.75 13.1094V17.0156C19.7479 17.7402 19.4592 18.4345 18.9468 18.9468C18.4345 19.4592 17.7402 19.7479 17.0156 19.75H15.0625" stroke="white" stroke-width="1.8" stroke-miterlimit="10" stroke-linecap="round"/>
<path d="M8.8125 11.9375V19.75M11.9375 11.9375V19.75M5.6875 11.9375V19.75M13.5 4.90625C14.1216 4.90625 14.7177 5.15318 15.1573 5.59272C15.5968 6.03226 15.8437 6.6284 15.8438 7.25C15.8437 7.8716 15.5968 8.46774 15.1573 8.90728C14.7177 9.34682 14.1216 9.59375 13.5 9.59375C12.853 9.59375 12.0688 9.23682 11.6445 8.8125H5.6875C5.29688 9.88672 4.36914 10.375 3.34375 10.375C2.72215 10.375 2.12601 10.1281 1.68647 9.68853C1.24693 9.24899 1 8.65285 1 8.03125C1 7.40965 1.24693 6.81351 1.68647 6.37397C2.12601 5.93443 2.72215 5.6875 3.34375 5.6875C3.80079 5.70671 4.24217 5.8595 4.61328 6.12695" stroke="white" stroke-width="1.8" stroke-linecap="round" stroke-linejoin="round"/>
<path d="M2.36033 8.57009C2.16882 8.27718 2.01866 7.92623 1.91931 7.53933C1.81996 7.15244 1.77358 6.73799 1.78307 6.32207C1.79257 5.90615 1.85774 5.49777 1.97448 5.12263C2.09122 4.7475 2.25701 4.41373 2.46141 4.14235C2.66581 3.87098 2.90438 3.66786 3.16212 3.54579C3.41986 3.42372 3.69118 3.38535 3.95899 3.43308C4.22681 3.48081 4.48533 3.61362 4.71827 3.82314C4.9512 4.03266 5.15352 4.31436 5.31248 4.6505C5.31248 4.6505 5.68748 5.44723 5.68748 5.82412M4.99559 3.46558C5.84471 1.97161 7.03367 1 8.42186 1C10.9795 1 13.0117 4.22914 13.0117 8.17663C13.0119 8.62657 12.9846 9.07554 12.9302 9.51758" stroke="white" stroke-width="1.8" stroke-miterlimit="10" stroke-linecap="round"/>
</svg>
