<svg width="24" height="24" viewBox="0 0 24 24" fill="none" xmlns="http://www.w3.org/2000/svg">
<path d="M3.08794 18.5577C3.1514 18.3261 3.01231 18.004 2.87957 17.7718C2.83842 17.7025 2.79358 17.6354 2.74525 17.5709C1.60678 15.8443 0.999983 13.8217 1.00006 11.7536C0.981017 5.81726 5.90352 1 11.9905 1C17.2991 1 21.7308 4.6776 22.7658 9.55938C22.9211 10.2831 22.9996 11.0213 23.0001 11.7615C23.0001 17.7063 18.2674 22.5991 12.1804 22.5991C11.2121 22.5991 9.90635 22.3559 9.194 22.1565C8.48164 21.9571 7.77034 21.6927 7.58683 21.6218C7.39897 21.5497 7.19947 21.5126 6.99823 21.5124C6.77878 21.5116 6.56146 21.5553 6.35938 21.6409L2.77169 22.9355C2.69329 22.9694 2.61019 22.9911 2.52525 23C2.45806 22.9998 2.39158 22.9863 2.32965 22.9602C2.26772 22.9341 2.21157 22.8961 2.16446 22.8482C2.11734 22.8003 2.08019 22.7435 2.05516 22.6811C2.03013 22.6188 2.0177 22.5521 2.01861 22.4849C2.02302 22.426 2.03366 22.3676 2.05034 22.3109L3.08794 18.5577Z" stroke="white" stroke-width="1.8" stroke-miterlimit="10" stroke-linecap="round"/>
<path d="M6.92314 13.6922C7.85778 13.6922 8.61545 12.9346 8.61545 11.9999C8.61545 11.0653 7.85778 10.3076 6.92314 10.3076C5.98851 10.3076 5.23083 11.0653 5.23083 11.9999C5.23083 12.9346 5.98851 13.6922 6.92314 13.6922Z" fill="white"/>
<path d="M12 13.6922C12.9347 13.6922 13.6924 12.9346 13.6924 11.9999C13.6924 11.0653 12.9347 10.3076 12 10.3076C11.0654 10.3076 10.3077 11.0653 10.3077 11.9999C10.3077 12.9346 11.0654 13.6922 12 13.6922Z" fill="white"/>
<path d="M17.077 13.6922C18.0116 13.6922 18.7693 12.9346 18.7693 11.9999C18.7693 11.0653 18.0116 10.3076 17.077 10.3076C16.1423 10.3076 15.3846 11.0653 15.3846 11.9999C15.3846 12.9346 16.1423 13.6922 17.077 13.6922Z" fill="white"/>
</svg>
