<svg width="47" height="37" viewBox="0 0 47 37" fill="none" xmlns="http://www.w3.org/2000/svg">
<path d="M37.4841 17.8917L40.4578 30.9503C40.5874 31.5274 40.4834 32.1323 40.1685 32.6329C39.8536 33.1336 39.3533 33.4893 38.777 33.6223L29.2008 35.8031C28.6237 35.9327 28.0188 35.8286 27.5181 35.5137C27.0175 35.1988 26.6618 34.6986 26.5287 34.1223L23.8524 22.3696" stroke="white" stroke-width="1.6" stroke-linecap="round" stroke-linejoin="round"/>
<path d="M37.7815 19.1978L39.9579 18.7021C40.7658 18.5206 41.6128 18.6661 42.3137 19.107C43.0146 19.548 43.5126 20.2484 43.6988 21.0553L44.69 25.4081C44.8716 26.216 44.726 27.063 44.2851 27.7639C43.8442 28.4649 43.1438 28.9628 42.3369 29.149L40.1605 29.6446" stroke="white" stroke-width="1.6" stroke-miterlimit="10" stroke-linecap="round"/>
<path d="M31.2134 22.5248L33.1959 31.2304M34.6957 21.7318L36.6782 30.4374M27.7311 23.3177L29.7136 32.0234M34.6526 13.5001C35.3453 13.3424 36.0722 13.4663 36.6735 13.8445C37.2749 14.2228 37.7013 14.8244 37.859 15.5171C38.0168 16.2098 37.8929 16.9367 37.5146 17.538C37.1364 18.1394 36.5348 18.5658 35.8421 18.7235C35.1211 18.8877 34.1567 18.689 33.5762 18.3238L26.9381 19.8355C26.7755 21.1316 25.8656 21.9112 24.7229 22.1714C24.0303 22.3291 23.3033 22.2052 22.702 21.827C22.1007 21.4487 21.6742 20.8471 21.5165 20.1544C21.3587 19.4617 21.4826 18.7348 21.8609 18.1334C22.2391 17.5321 22.8408 17.1057 23.5334 16.9479C24.0476 16.8534 24.5782 16.9116 25.0596 17.1155" stroke="white" stroke-width="1.6" stroke-linecap="round" stroke-linejoin="round"/>
<path d="M23.1691 20.4096C22.8814 20.1318 22.625 19.7789 22.4161 19.3729C22.2072 18.967 22.0504 18.517 21.9554 18.0511C21.8604 17.5852 21.8294 17.1136 21.8643 16.6659C21.8992 16.2183 21.9993 15.8043 22.1582 15.45C22.3171 15.0958 22.5314 14.8089 22.7876 14.6074C23.0438 14.406 23.3364 14.2944 23.647 14.2796C23.9575 14.2649 24.2793 14.3473 24.592 14.5216C24.9048 14.696 25.2017 14.9585 25.4641 15.2928C25.4641 15.2928 26.0842 16.0854 26.1798 16.5054M24.8103 14.0528C25.3774 12.1726 26.4558 10.7882 28.0027 10.4359C30.8527 9.78687 33.9367 12.8695 34.9384 17.2683C35.0528 17.7696 35.1363 18.2769 35.1878 18.7833" stroke="white" stroke-width="1.6" stroke-miterlimit="10" stroke-linecap="round"/>
<line x1="24.678" y1="7.8813" x2="25.8316" y2="0.763064" stroke="white" stroke-width="1.6"/>
<line x1="27.3574" y1="8.52" x2="30.3574" y2="4.52" stroke="white" stroke-width="1.6"/>
<line x1="21.1992" y1="8.52947" x2="18.4576" y2="4.34811" stroke="white" stroke-width="1.6"/>
<path d="M23.557 21.093L19.9245 33.9838C19.7624 34.5526 19.3818 35.0341 18.8658 35.3233C18.3498 35.6124 17.7404 35.6856 17.1706 35.5268L7.71733 32.863C7.14852 32.7009 6.66697 32.3202 6.37786 31.8043C6.08875 31.2883 6.01556 30.6788 6.17428 30.1091L9.44357 18.5073" stroke="white" stroke-width="1.6" stroke-linecap="round" stroke-linejoin="round"/>
<path d="M8.95355 18.6663L6.80508 18.0608C6.00741 17.8385 5.15416 17.9409 4.43175 18.3457C3.70934 18.7505 3.1765 19.4247 2.94963 20.2211L1.73878 24.518C1.51645 25.3157 1.61886 26.169 2.02364 26.8914C2.42841 27.6138 3.10265 28.1466 3.89905 28.3735L6.04752 28.9789" stroke="white" stroke-width="1.6" stroke-miterlimit="10" stroke-linecap="round"/>
<path d="M15.8343 22.1635L13.4126 30.7574M19.2719 23.1322L16.8502 31.7261M12.3968 21.1948L9.97509 29.7887M23.1702 15.882C23.854 16.0747 24.4332 16.5311 24.7804 17.1509C25.1277 17.7706 25.2145 18.5029 25.0218 19.1867C24.8292 19.8705 24.3727 20.4497 23.753 20.797C23.1333 21.1442 22.4009 21.231 21.7172 21.0384C21.0055 20.8378 20.2535 20.2021 19.9183 19.6038L13.3655 17.7573C12.6028 18.8179 11.4309 19.0674 10.303 18.7495C9.61919 18.5569 9.03997 18.1004 8.69271 17.4807C8.34546 16.861 8.25862 16.1286 8.4513 15.4449C8.64399 14.7611 9.1004 14.1819 9.72015 13.8346C10.3399 13.4874 11.0722 13.4005 11.756 13.5932C12.2528 13.756 12.6909 14.0609 13.0163 14.4702" stroke="white" stroke-width="1.6" stroke-linecap="round" stroke-linejoin="round"/>
<path d="M9.78068 16.4594C9.66081 16.0778 9.60442 15.6452 9.61506 15.1889C9.6257 14.7325 9.70315 14.2622 9.84252 13.8076C9.98189 13.353 10.1802 12.924 10.4249 12.5476C10.6696 12.1711 10.9554 11.8553 11.2644 11.6202C11.5733 11.385 11.8987 11.2355 12.2201 11.1811C12.5414 11.1268 12.8518 11.1686 13.1316 11.3042C13.4114 11.4397 13.6546 11.6659 13.8459 11.9686C14.0372 12.2713 14.1724 12.6439 14.2431 13.0629C14.2431 13.0629 14.4086 14.0556 14.2918 14.4701M14.2618 11.6612C15.6589 10.2811 17.268 9.58082 18.795 10.0111C21.6084 10.8039 22.843 14.986 21.6193 19.3283C21.48 19.8233 21.3108 20.3087 21.114 20.7781" stroke="white" stroke-width="1.6" stroke-miterlimit="10" stroke-linecap="round"/>
</svg>
