<svg width="30" height="29" viewBox="0 0 30 29" fill="none" xmlns="http://www.w3.org/2000/svg">
<path d="M16.9887 14.4999L22.5551 9.11906C22.8193 8.86413 22.9679 8.5182 22.9682 8.15737C22.9685 7.79653 22.8205 7.45035 22.5568 7.19498C22.2931 6.9396 21.9353 6.79595 21.562 6.79564C21.1887 6.79532 20.8306 6.93835 20.5664 7.19328L15 12.5741L9.43359 7.19328C9.16941 6.9379 8.81111 6.79443 8.4375 6.79443C8.06389 6.79443 7.70558 6.9379 7.4414 7.19328C7.17722 7.44865 7.02881 7.79501 7.02881 8.15617C7.02881 8.51732 7.17722 8.86368 7.4414 9.11906L13.0078 14.4999L7.4414 19.8808C7.17722 20.1362 7.02881 20.4825 7.02881 20.8437C7.02881 21.2048 7.17722 21.5512 7.4414 21.8066C7.70558 22.0619 8.06389 22.2054 8.4375 22.2054C8.81111 22.2054 9.16941 22.0619 9.43359 21.8066L15 16.4257L20.5664 21.8066C20.8306 22.0619 21.1889 22.2054 21.5625 22.2054C21.9361 22.2054 22.2944 22.0619 22.5586 21.8066C22.8228 21.5512 22.9712 21.2048 22.9712 20.8437C22.9712 20.4825 22.8228 20.1362 22.5586 19.8808L16.9887 14.4999Z" fill="white"/>
</svg>
