<svg width="23" height="24" viewBox="0 0 23 24" fill="none" xmlns="http://www.w3.org/2000/svg">
<path d="M21.3097 16.5147V7.48321C21.3093 7.18761 21.2315 6.89726 21.0841 6.64106C20.9366 6.38485 20.7246 6.17174 20.4692 6.02292L12.43 1.3443C12.0427 1.1188 11.6025 1 11.1543 1C10.7061 1 10.2659 1.1188 9.8786 1.3443L1.84042 6.02292C1.58501 6.17174 1.37303 6.38485 1.22558 6.64106C1.07814 6.89726 1.00036 7.18761 1 7.48321V16.5147C1.00018 16.8104 1.07786 17.101 1.22532 17.3574C1.37278 17.6138 1.58485 17.8271 1.84042 17.976L9.87966 22.6546C10.2671 22.8798 10.7072 22.9984 11.1554 22.9984C11.6035 22.9984 12.0436 22.8798 12.4311 22.6546L20.4703 17.976C20.7257 17.827 20.9375 17.6136 21.0848 17.3572C21.2321 17.1008 21.3096 16.8103 21.3097 16.5147Z" stroke="white" stroke-width="1.8" stroke-linecap="round" stroke-linejoin="round"/>
<path d="M1.26447 6.604L11.1548 12.4219L21.0452 6.604M11.1548 22.9998V12.4219" stroke="white" stroke-width="1.8" stroke-linecap="round" stroke-linejoin="round"/>
<path d="M11.1548 7.3453C11.8558 7.3453 12.4241 6.96643 12.4241 6.49907C12.4241 6.0317 11.8558 5.65283 11.1548 5.65283C10.4537 5.65283 9.88544 6.0317 9.88544 6.49907C9.88544 6.96643 10.4537 7.3453 11.1548 7.3453Z" fill="white"/>
<path d="M8.61613 15.3844C9.0835 15.3844 9.46237 14.8161 9.46237 14.1151C9.46237 13.414 9.0835 12.8457 8.61613 12.8457C8.14877 12.8457 7.7699 13.414 7.7699 14.1151C7.7699 14.8161 8.14877 15.3844 8.61613 15.3844Z" fill="white"/>
<path d="M3.53874 17.0768C4.0061 17.0768 4.38498 16.5085 4.38498 15.8074C4.38498 15.1064 4.0061 14.5381 3.53874 14.5381C3.07138 14.5381 2.6925 15.1064 2.6925 15.8074C2.6925 16.5085 3.07138 17.0768 3.53874 17.0768Z" fill="white"/>
<path d="M13.6935 15.3844C14.1609 15.3844 14.5398 14.8161 14.5398 14.1151C14.5398 13.414 14.1609 12.8457 13.6935 12.8457C13.2262 12.8457 12.8473 13.414 12.8473 14.1151C12.8473 14.8161 13.2262 15.3844 13.6935 15.3844Z" fill="white"/>
<path d="M18.7709 12.4225C19.2383 12.4225 19.6172 11.8542 19.6172 11.1531C19.6172 10.4521 19.2383 9.88379 18.7709 9.88379C18.3036 9.88379 17.9247 10.4521 17.9247 11.1531C17.9247 11.8542 18.3036 12.4225 18.7709 12.4225Z" fill="white"/>
<path d="M13.6935 20.0387C14.1609 20.0387 14.5398 19.4704 14.5398 18.7694C14.5398 18.0683 14.1609 17.5 13.6935 17.5C13.2262 17.5 12.8473 18.0683 12.8473 18.7694C12.8473 19.4704 13.2262 20.0387 13.6935 20.0387Z" fill="white"/>
<path d="M19.0787 17.0752C19.5461 17.0752 19.925 16.5076 19.925 15.8074C19.925 15.1072 19.5461 14.5396 19.0787 14.5396C18.6114 14.5396 18.2325 15.1072 18.2325 15.8074C18.2325 16.5076 18.6114 17.0752 19.0787 17.0752Z" fill="white"/>
</svg>
