<svg width="22" height="19" viewBox="0 0 22 19" fill="none" xmlns="http://www.w3.org/2000/svg">
<line x1="11.2017" y1="14.1983" x2="11.2198" y2="5.79826" stroke="white" stroke-width="1.6" stroke-linecap="round"/>
<line x1="14.2017" y1="14.1983" x2="14.2198" y2="5.79826" stroke="white" stroke-width="1.6" stroke-linecap="round"/>
<line x1="17.2017" y1="14.1983" x2="17.2198" y2="5.79826" stroke="white" stroke-width="1.6" stroke-linecap="round"/>
<path d="M21.0952 2.49851L21.0748 15.8913C21.0721 16.4828 20.8355 17.0492 20.4167 17.4668C19.9978 17.8844 19.4307 18.1192 18.8393 18.1201L9.01786 18.1052C8.42641 18.1025 7.86004 17.8659 7.44245 17.4471C7.02486 17.0282 6.78998 16.4611 6.78911 15.8696L6.80743 3.81609" stroke="white" stroke-width="1.6" stroke-linecap="round" stroke-linejoin="round"/>
<path d="M6.3784 4.10115L4.14626 4.09776C3.31818 4.09886 2.5242 4.42765 1.93777 5.0123C1.35133 5.59695 1.02013 6.38993 1.01652 7.21801L1.00974 11.6823C1.01083 12.5104 1.33962 13.3044 1.92428 13.8908C2.50893 14.4772 3.30191 14.8084 4.12998 14.812L6.36212 14.8154" stroke="white" stroke-width="1.6" stroke-miterlimit="10" stroke-linecap="round"/>
<path d="M7.03225 16.6545L7.0046 3.26163C7.00512 2.67017 7.23576 2.10296 7.64615 1.68389C8.05654 1.26481 8.61333 1.02792 9.19493 1.02496L18.8526 1.00502C19.4342 1.00558 19.992 1.24017 20.4041 1.65755C20.8162 2.07492 21.0492 2.64117 21.0522 3.23263L21.0771 15.2862" stroke="white" stroke-width="1.6" stroke-linecap="round" stroke-linejoin="round"/>
</svg>
